<svg version="1.1" id="Layer_1" xmlns="http://www.w3.org/2000/svg" xmlns:xlink="http://www.w3.org/1999/xlink" x="0px" y="0px"
	 width="100%" viewBox="0 0 1920 1920" enable-background="new 0 0 1920 1920" xml:space="preserve">
<path fill="#000000" opacity="1.000000" stroke="none" 
	d="
M1319.000000,1921.000000 
	C879.333313,1921.000000 440.166656,1921.000000 1.000000,1921.000000 
	C1.000000,1281.000000 1.000000,641.000000 1.000000,1.000000 
	C641.000000,1.000000 1281.000000,1.000000 1921.000000,1.000000 
	C1921.000000,641.000000 1921.000000,1281.000000 1921.000000,1921.000000 
	C1720.500000,1921.000000 1520.000000,1921.000000 1319.000000,1921.000000 
M1163.471680,616.083313 
	C1163.322021,616.397522 1163.172363,616.711731 1162.428833,617.091125 
	C1162.425659,617.344482 1162.422485,617.597778 1162.419434,617.851135 
	C1162.603149,617.558289 1162.786865,617.265442 1163.550537,616.959900 
	C1163.691895,616.631531 1163.833252,616.303162 1164.591309,616.007324 
	C1164.719849,615.664062 1164.848389,615.320862 1165.830933,615.036377 
	C1168.621948,614.684753 1171.411743,614.041260 1174.204346,614.028381 
	C1193.531006,613.939331 1212.858643,614.008301 1232.185547,613.943298 
	C1234.280884,613.936279 1236.374512,613.398560 1238.468872,613.106995 
	C1236.264771,612.568604 1234.179565,612.985535 1232.093750,612.989624 
	C1211.433716,613.030090 1190.773315,612.954712 1170.114014,613.081421 
	C1168.411377,613.091858 1166.716431,614.342407 1164.441040,615.036987 
	C1164.301147,615.365540 1164.161133,615.694031 1163.471680,616.083313 
M1086.123169,1084.506592 
	C1086.564087,1084.268555 1087.005127,1084.030640 1087.445679,1083.792114 
	C1086.989502,1084.198364 1086.533447,1084.604614 1086.027710,1085.370972 
	C1085.698242,1085.395752 1085.368774,1085.420532 1085.039307,1085.445312 
	C1085.370117,1085.299072 1085.701050,1085.152832 1086.123169,1084.506592 
M1079.122314,1089.500000 
	C1079.578857,1089.261475 1080.035522,1089.022949 1080.491577,1088.784058 
	C1080.016846,1089.192749 1079.542114,1089.601562 1079.022949,1090.368652 
	C1078.697021,1090.394287 1078.371094,1090.419922 1078.045166,1090.445557 
	C1078.372437,1090.298218 1078.699707,1090.151001 1079.122314,1089.500000 
M681.850891,1084.543213 
	C681.337341,1084.690796 680.823792,1084.838501 679.122620,1085.327393 
	C680.809937,1084.524780 681.369080,1084.258789 682.049500,1083.460938 
	C682.593933,1083.253540 683.138367,1083.046265 683.560364,1082.885620 
	C683.099304,1083.216797 682.535950,1083.621460 681.850891,1084.543213 
M675.127441,1088.501465 
	C675.593079,1088.257812 676.058716,1088.014282 676.526306,1087.772339 
	C676.043335,1088.185425 675.560303,1088.598511 675.027710,1089.371704 
	C674.698853,1089.395996 674.370056,1089.420288 674.041199,1089.444702 
	C674.371582,1089.298950 674.701965,1089.153198 675.127441,1088.501465 
M1090.787720,1298.505493 
	C1090.276001,1298.646484 1089.764282,1298.787476 1088.625610,1299.101196 
	C1089.789307,1298.545410 1090.361328,1298.272217 1090.994263,1297.561035 
	C1091.121216,1297.465454 1091.238403,1297.350708 1091.377808,1297.279785 
	C1091.526367,1297.204346 1091.695801,1297.170166 1091.855957,1297.117798 
	C1091.562012,1297.422485 1091.268066,1297.727173 1090.787720,1298.505493 
M1487.201416,1304.355103 
	C1488.172119,1303.928467 1489.142700,1303.501831 1490.213989,1302.532959 
	C1490.760498,1302.293701 1491.307129,1302.054443 1491.279419,1302.066528 
	C1491.220215,1302.121216 1490.701782,1302.599365 1489.786987,1303.614502 
	C1488.880127,1304.079590 1487.973145,1304.544556 1487.022705,1305.367920 
	C1486.697021,1305.393677 1486.371460,1305.419556 1486.045776,1305.445435 
	C1486.372559,1305.297852 1486.699463,1305.150391 1487.201416,1304.355103 
M1499.632935,1296.365112 
	C1499.161987,1296.504761 1498.691040,1296.644287 1499.091675,1296.525635 
	C1498.843018,1296.694458 1499.367188,1296.338501 1500.188110,1295.358521 
	C1501.179565,1294.945312 1502.171021,1294.532104 1503.450928,1293.376465 
	C1510.954102,1289.861938 1518.457275,1286.347290 1525.960571,1282.832642 
	C1525.583984,1282.160278 1525.207520,1281.487793 1524.831055,1280.815430 
	C1517.634888,1285.269409 1510.438721,1289.723389 1502.575195,1294.296875 
	C1501.701904,1294.872803 1500.828613,1295.448608 1499.632935,1296.365112 
M1084.188477,1302.518677 
	C1084.735352,1302.285400 1085.282227,1302.052002 1085.270386,1302.057129 
	C1085.199097,1302.120239 1084.674805,1302.583984 1084.004028,1303.394775 
	C1083.716919,1303.453613 1083.429688,1303.512451 1083.142578,1303.571167 
	C1083.156006,1303.426636 1083.144409,1303.165405 1083.187012,1303.156250 
	C1083.478638,1303.093506 1083.781494,1303.083740 1084.188477,1302.518677 
M376.193787,994.987305 
	C366.202850,994.517090 356.211914,994.046875 346.220978,993.576660 
	C346.206238,994.344116 346.191498,995.111572 346.176758,995.879028 
	C356.473114,995.879028 366.769470,995.879028 377.807648,996.052979 
	C385.697296,997.363953 393.586975,998.674988 401.476654,999.986023 
	C401.528717,999.600403 401.580811,999.214783 401.632874,998.829163 
	C393.445038,997.604858 385.257233,996.380554 376.193787,994.987305 
M1099.800171,1293.059692 
	C1106.497192,1289.526733 1113.194214,1285.993774 1119.891235,1282.460815 
	C1119.628296,1281.977295 1119.365234,1281.493652 1119.102173,1281.010132 
	C1112.301758,1284.870728 1105.501465,1288.731445 1098.114746,1292.752319 
	C1097.136230,1293.448608 1096.157715,1294.145020 1094.661255,1295.210083 
	C1096.140015,1295.092529 1097.046143,1295.255127 1097.661255,1294.905640 
	C1098.276489,1294.555908 1098.601196,1293.694824 1099.800171,1293.059692 
M895.418518,721.418152 
	C895.418518,734.840393 895.418518,748.262695 895.418518,761.684937 
	C895.668091,761.701477 895.917725,761.718018 896.167297,761.734558 
	C896.279785,748.240112 896.392212,734.745667 896.898376,720.355652 
	C896.898376,651.312317 896.898376,582.268921 896.898376,513.254028 
	C940.016724,513.254028 982.265015,513.254028 1025.000732,513.254028 
	C1025.000732,515.448486 1025.000732,517.407227 1025.000732,519.365906 
	C1025.000610,566.341064 1024.994507,613.316223 1025.021484,660.291382 
	C1025.022583,662.261292 1025.330933,664.231079 1025.492676,666.926575 
	C1025.492432,695.256165 1025.451660,723.585938 1025.545776,751.915222 
	C1025.556763,755.241333 1026.309937,758.564941 1026.719116,761.889709 
	C1027.209717,761.823059 1027.700317,761.756348 1028.190918,761.689636 
	C1027.785889,756.850586 1027.060303,752.013611 1027.029053,747.172119 
	C1026.850098,719.520203 1026.836304,691.867249 1026.953003,663.266174 
	C1026.635132,654.668762 1026.063843,646.071899 1026.042725,637.473755 
	C1025.944336,597.330688 1025.998047,557.187195 1025.997314,517.043884 
	C1025.997192,515.438538 1025.997192,513.833191 1025.997192,512.197021 
	C982.460388,512.197021 939.398987,512.197021 896.002136,512.197021 
	C896.002136,514.173889 896.002136,515.970032 896.002136,517.766113 
	C896.001831,581.562378 895.996521,645.358643 896.013245,709.154907 
	C896.014282,713.178528 896.186951,717.202087 895.418518,721.418152 
M641.500000,357.028381 
	C610.071228,357.028381 578.642517,357.028381 547.301025,357.028381 
	C547.301025,416.504578 547.301025,475.455719 547.301025,534.406860 
	C547.624390,534.407410 547.947754,534.407898 548.271118,534.408386 
	C548.271118,475.699646 548.271118,416.990845 548.271118,358.394653 
	C591.140564,358.394653 633.375671,358.394653 676.065735,358.394653 
	C676.065735,416.671234 676.065735,474.554016 676.065735,532.436829 
	C676.276245,532.435791 676.486755,532.434753 676.697266,532.433777 
	C676.697266,474.041809 676.697266,415.649841 676.697266,357.028503 
	C665.114624,357.028503 653.807312,357.028503 641.500000,357.028381 
M1368.432129,357.023682 
	C1327.349243,357.023682 1286.266357,357.023682 1245.266846,357.023682 
	C1245.266846,415.933075 1245.266846,474.211212 1245.266846,532.489319 
	C1245.561035,532.490295 1245.855103,532.491211 1246.149292,532.492126 
	C1246.149292,474.454987 1246.149292,416.417816 1246.149292,358.352692 
	C1289.022827,358.352692 1331.253662,358.352692 1374.075684,358.352692 
	C1374.075684,417.235046 1374.075684,475.768860 1374.075684,534.302673 
	C1374.284790,534.300781 1374.493774,534.298950 1374.702881,534.297058 
	C1374.702881,475.247223 1374.702881,416.197388 1374.702881,357.022003 
	C1372.717773,357.022003 1371.064209,357.022003 1368.432129,357.023682 
M595.901855,1060.416138 
	C567.674988,1070.067505 539.444275,1068.893066 511.210968,1060.117310 
	C541.725769,1075.287964 603.667236,1067.939087 622.549255,1046.930176 
	C621.085510,1047.404785 619.786194,1048.200684 618.431824,1048.887817 
	C611.146545,1052.583984 603.847656,1056.253296 595.901855,1060.416138 
M1379.099243,1284.236450 
	C1393.353882,1283.000366 1406.132568,1279.803955 1412.329590,1275.429199 
	C1397.984619,1280.266602 1384.598999,1283.066284 1370.557129,1283.010010 
	C1356.702637,1282.954468 1342.957886,1282.616455 1329.421997,1279.198853 
	C1345.329590,1284.459717 1361.625366,1285.622070 1379.099243,1284.236450 
M1125.132202,1063.007812 
	C1117.668457,1066.237671 1110.204712,1069.467407 1102.741089,1072.697266 
	C1102.945190,1073.153809 1103.149292,1073.610352 1103.353516,1074.066895 
	C1110.891968,1070.742188 1118.268066,1066.956787 1126.015747,1064.225464 
	C1133.425415,1061.613403 1141.120605,1059.269897 1148.875122,1058.325562 
	C1157.119629,1057.321411 1165.581421,1058.099731 1173.948242,1058.099731 
	C1157.873535,1059.000244 1141.559570,1057.636963 1125.132202,1063.007812 
M980.761292,1066.936646 
	C988.697571,1065.103271 996.633911,1063.269897 1004.570190,1061.436523 
	C1004.464417,1060.865967 1004.358643,1060.295288 1004.252869,1059.724609 
	C978.254333,1069.071167 951.863342,1068.817017 925.239746,1063.299683 
	C943.205017,1068.714844 961.449280,1069.303711 980.761292,1066.936646 
M971.189453,1500.041748 
	C957.017761,1499.294434 942.846008,1498.546997 930.112549,1497.875610 
	C951.161255,1503.577759 988.848755,1501.879639 1001.079041,1494.503418 
	C991.708557,1496.086426 981.810181,1497.758667 971.189453,1500.041748 
M1363.599609,1501.209106 
	C1378.713989,1501.392456 1393.578003,1499.982910 1407.779907,1494.123901 
	C1383.655884,1501.206421 1359.263428,1501.862549 1334.608398,1496.707031 
	C1334.590210,1497.300171 1334.572144,1497.893311 1334.554077,1498.486450 
	C1343.916138,1499.393433 1353.278076,1500.300537 1363.599609,1501.209106 
M952.415100,1282.907959 
	C946.584595,1282.620239 940.754089,1282.332520 934.923584,1282.044678 
	C959.839661,1286.422607 984.305908,1285.873169 1007.791870,1275.237183 
	C990.168640,1281.374634 972.121338,1284.614990 952.415100,1282.907959 
M1395.165771,1065.385620 
	C1399.431396,1064.219849 1403.697021,1063.054077 1407.962769,1061.888184 
	C1407.889893,1061.479858 1407.817139,1061.071533 1407.744385,1060.663208 
	C1387.676758,1066.652832 1367.273438,1068.733398 1346.473511,1066.338745 
	C1362.517700,1069.040894 1378.468994,1068.744873 1395.165771,1065.385620 
M520.583069,1496.954102 
	C538.232422,1501.667969 558.484436,1502.566772 577.327271,1499.057983 
	C556.931580,1501.180908 536.740662,1500.307007 516.727539,1495.594238 
	C517.767944,1495.993286 518.808411,1496.392334 520.583069,1496.954102 
M1148.358643,1493.123291 
	C1149.890381,1492.735962 1151.418701,1492.029663 1152.954468,1492.013184 
	C1162.575317,1491.910156 1172.197754,1491.961060 1181.819702,1491.961060 
	C1176.044189,1491.389648 1170.261230,1490.873047 1164.478394,1490.876099 
	C1158.503784,1490.879150 1152.492798,1491.072998 1146.565430,1491.764893 
	C1140.899170,1492.426147 1135.320190,1493.835571 1129.702759,1494.916016 
	C1129.700439,1494.461426 1129.698120,1494.006836 1129.695801,1493.552368 
	C1135.604492,1493.410889 1141.513184,1493.269409 1148.358643,1493.123291 
M746.981079,1274.946289 
	C754.688660,1275.335205 762.393066,1275.874146 770.105408,1276.038086 
	C773.125000,1276.102173 776.162476,1275.325439 779.191772,1274.931641 
	C779.251770,1275.020264 779.311707,1275.108887 779.371643,1275.197510 
	C764.477722,1275.197510 749.583801,1275.197510 734.689880,1275.197510 
	C734.679321,1275.249878 734.668701,1275.302368 734.658142,1275.354736 
	C738.488647,1275.119995 742.319214,1274.885376 746.981079,1274.946289 
M759.500122,1211.095703 
	C763.480652,1211.241699 767.462952,1211.351318 771.441223,1211.544067 
	C775.215759,1211.727173 778.986084,1211.997437 782.758301,1212.229370 
	C782.754578,1211.909668 782.750916,1211.589966 782.747253,1211.270264 
	C763.558350,1211.270264 744.369446,1211.270264 725.180542,1211.270264 
	C725.183594,1211.787354 725.186646,1212.304321 725.189697,1212.821411 
	C736.292969,1212.246216 747.396240,1211.671143 759.500122,1211.095703 
M796.334045,1064.983398 
	C797.419250,1063.650757 797.463074,1063.481567 795.738647,1063.034790 
	C784.991028,1060.250854 774.309692,1057.221924 762.940857,1058.578979 
	C758.470093,1059.112549 753.882385,1058.666260 749.347900,1058.666260 
	C749.394226,1058.049438 749.440552,1057.432617 749.486877,1056.815796 
	C755.407654,1057.538574 761.366333,1058.037842 767.240540,1059.035034 
	C776.787659,1060.655762 786.279480,1062.602417 796.334045,1064.983398 
M1144.317261,1275.831787 
	C1141.495117,1276.246094 1138.672852,1276.660522 1135.850708,1277.074829 
	C1149.873169,1274.221802 1164.207886,1277.705811 1178.270752,1275.604736 
	C1178.240479,1275.021973 1178.210327,1274.439209 1178.180054,1273.856445 
	C1167.184082,1274.450928 1156.188110,1275.045410 1144.317261,1275.831787 
M1169.500488,1211.099365 
	C1172.820679,1211.303467 1176.140991,1211.505005 1179.461060,1211.712158 
	C1182.525635,1211.903564 1185.589844,1212.101074 1188.654297,1212.295898 
	C1171.797241,1209.428711 1154.958740,1209.375854 1140.933960,1211.097778 
	C1148.284302,1211.097778 1158.393188,1211.097778 1169.500488,1211.099365 
M1186.079834,1429.020752 
	C1189.990845,1429.465576 1193.901855,1429.910278 1197.812866,1430.355103 
	C1180.985229,1426.178589 1140.880859,1425.844116 1135.198120,1428.949951 
	C1151.766602,1428.949951 1168.470459,1428.949951 1186.079834,1429.020752 
M1554.288818,1211.179565 
	C1548.568237,1211.476929 1542.847656,1211.774292 1537.126953,1212.071655 
	C1552.076172,1212.178711 1566.941528,1208.858398 1581.868042,1212.689941 
	C1573.148071,1208.738403 1564.002930,1210.002930 1554.288818,1211.179565 
M599.891174,1275.524536 
	C593.310974,1277.614746 586.730774,1279.704956 580.150574,1281.795166 
	C594.517090,1280.134155 607.274109,1274.507812 618.751770,1265.816895 
	C612.662415,1268.876709 606.572998,1271.936523 599.891174,1275.524536 
M1373.484009,1564.987549 
	C1379.827759,1564.346802 1386.171509,1563.706177 1392.515259,1563.065430 
	C1392.505371,1563.193359 1392.495605,1563.321289 1392.485718,1563.449219 
	C1377.538086,1563.449219 1362.590576,1563.449219 1347.642944,1563.449219 
	C1347.644409,1563.941895 1347.645752,1564.434570 1347.647217,1564.927246 
	C1355.928467,1564.927246 1364.209595,1564.927246 1373.484009,1564.987549 
M1375.209229,604.468811 
	C1375.589111,605.361755 1375.968872,606.254700 1376.035156,606.410461 
	C1376.035156,583.502686 1376.035156,559.955872 1376.035156,536.409058 
	C1375.553589,536.410889 1375.071899,536.412720 1374.590332,536.414490 
	C1374.590332,543.855774 1374.545044,551.297302 1374.599609,558.738159 
	C1374.709595,573.717224 1374.874146,588.695923 1375.209229,604.468811 
M539.708130,1563.650269 
	C538.470215,1563.713013 537.232361,1563.775757 535.994446,1563.838501 
	C536.031799,1564.023560 536.069214,1564.208740 536.106567,1564.393799 
	C548.629089,1564.393799 561.151550,1564.393799 573.674072,1564.393799 
	C573.674133,1564.154663 573.674255,1563.915649 573.674316,1563.676514 
	C562.652100,1563.676514 551.629822,1563.676514 539.708130,1563.650269 
M545.995911,576.500000 
	C545.995911,586.669006 545.995911,596.837952 545.995911,605.802307 
	C547.542603,602.777954 548.556213,542.478821 545.995911,536.274963 
	C545.995911,549.349976 545.995911,562.424988 545.995911,576.500000 
M1441.474609,613.018311 
	C1421.935669,613.018311 1402.396851,613.018311 1382.857910,613.018311 
	C1382.855713,613.194885 1382.853516,613.371399 1382.851318,613.547974 
	C1405.819336,613.547974 1428.787231,613.547974 1451.755249,613.547974 
	C1451.763428,613.371521 1451.771729,613.195129 1451.780029,613.018677 
	C1448.674683,613.018677 1445.569336,613.018677 1441.474609,613.018311 
M779.562073,1492.793701 
	C779.869812,1492.752686 780.177612,1492.711670 780.485352,1492.670654 
	C780.189026,1492.538818 779.903503,1492.331299 779.594604,1492.287231 
	C777.135864,1491.936890 774.676147,1491.369873 772.210022,1491.333984 
	C763.976440,1491.214478 755.739990,1491.288696 747.504639,1491.288696 
	C747.508911,1491.807495 747.513245,1492.326172 747.517517,1492.844971 
	C757.990845,1492.844971 768.464172,1492.844971 779.562073,1492.793701 
M495.500000,613.017517 
	C487.109467,613.017517 478.718933,613.017517 470.328400,613.017517 
	C470.336029,613.232239 470.343658,613.446899 470.351288,613.661621 
	C493.190826,613.661621 516.030334,613.661621 538.869873,613.661621 
	C538.868225,613.446777 538.866638,613.231934 538.865051,613.017090 
	C524.743347,613.017090 510.621674,613.017090 495.500000,613.017517 
M1245.318481,569.500183 
	C1245.318481,557.826050 1245.318481,546.151917 1245.318481,534.477783 
	C1245.006226,534.486511 1244.694092,534.495239 1244.381836,534.503967 
	C1244.381836,557.098877 1244.381836,579.693787 1244.381836,602.288696 
	C1244.694092,602.289307 1245.006226,602.289917 1245.318481,602.290527 
	C1245.318481,591.693787 1245.318481,581.096985 1245.318481,569.500183 
M678.004089,568.500000 
	C678.004089,557.163025 678.004089,545.826050 678.004089,534.489075 
	C677.726624,534.498108 677.449097,534.507080 677.171631,534.516113 
	C677.171631,557.111206 677.171631,579.706299 677.171631,602.301392 
	C677.449097,602.299866 677.726624,602.298340 678.004089,602.296814 
	C678.004089,591.364502 678.004089,580.432251 678.004089,568.500000 
M1560.509033,993.961487 
	C1549.986084,994.785339 1539.463135,995.609192 1528.940186,996.433105 
	C1528.976074,996.871521 1529.012085,997.309875 1529.048096,997.748291 
	C1544.673462,996.568054 1560.298950,995.387817 1575.924438,994.207642 
	C1575.950439,994.153625 1575.976562,994.099670 1576.002563,994.045715 
	C1571.168579,994.045715 1566.334473,994.045715 1560.509033,993.961487 
M694.582642,613.983521 
	C714.322876,613.983521 734.063110,613.983521 753.803345,613.983521 
	C753.802856,613.745422 753.802429,613.507385 753.801941,613.269287 
	C731.155640,613.269287 708.509399,613.269287 685.863098,613.269287 
	C685.860352,613.507324 685.857605,613.745361 685.854797,613.983398 
	C688.442322,613.983398 691.029907,613.983398 694.582642,613.983521 
M1096.337646,768.026672 
	C1075.944580,768.026672 1055.551636,768.026672 1035.158569,768.026672 
	C1035.160156,768.264954 1035.161865,768.503296 1035.163452,768.741577 
	C1057.321411,768.741577 1079.479248,768.741577 1101.637207,768.741577 
	C1101.638550,768.502808 1101.639771,768.264038 1101.640991,768.025269 
	C1100.189941,768.025269 1098.738892,768.025269 1096.337646,768.026672 
M877.426147,768.026001 
	C858.405334,768.026001 839.384583,768.026001 820.363770,768.026001 
	C820.365479,768.264221 820.367188,768.502502 820.368896,768.740723 
	C842.514648,768.740723 864.660461,768.740723 886.806213,768.740723 
	C886.807495,768.502380 886.808777,768.264099 886.809998,768.025757 
	C884.004028,768.025757 881.198059,768.025757 877.426147,768.026001 
M705.795837,1001.216187 
	C718.130188,998.826721 730.464539,996.437256 737.156494,995.140869 
	C729.887207,993.674377 717.352722,996.251160 705.795837,1001.216187 
M765.292847,1427.036377 
	C751.185181,1427.323608 736.964478,1426.011475 722.053467,1429.783569 
	C738.925232,1428.934326 754.743469,1428.138062 770.561768,1427.341919 
	C770.564575,1427.220581 770.567444,1427.099365 770.570312,1426.978149 
	C769.123108,1426.978149 767.675903,1426.978149 765.292847,1427.036377 
M971.628601,1563.770874 
	C961.611145,1563.770874 951.593689,1563.770874 941.576172,1563.770874 
	C941.579834,1564.138916 941.583557,1564.506836 941.587219,1564.874878 
	C947.703735,1564.874878 953.820251,1564.874878 959.936768,1564.874878 
	C966.109253,1564.874878 972.281799,1564.874878 978.454285,1564.874878 
	C978.448669,1564.493896 978.442993,1564.112793 978.437378,1563.731812 
	C976.462830,1563.731812 974.488281,1563.731812 971.628601,1563.770874 
M1357.719482,1132.023682 
	C1367.355591,1131.751221 1376.991699,1131.478760 1386.627808,1131.206421 
	C1386.616821,1131.036377 1386.605835,1130.866455 1386.594849,1130.696533 
	C1373.546997,1130.696533 1360.499268,1130.696533 1347.451416,1130.696533 
	C1347.453247,1130.800781 1347.455078,1130.905029 1347.456787,1131.009399 
	C1350.566772,1131.344727 1353.676880,1131.679932 1357.719482,1132.023682 
M702.078796,1072.618164 
	C706.035706,1070.606323 709.992676,1068.594604 713.949646,1066.582886 
	C713.646729,1066.032715 713.343811,1065.482544 713.040894,1064.932251 
	C704.671021,1069.558350 696.301208,1074.184326 687.931335,1078.810425 
	C688.190308,1079.284668 688.449219,1079.759033 688.708191,1080.233276 
	C692.960693,1077.848267 697.213196,1075.463379 702.078796,1072.618164 
M802.417175,1498.428345 
	C799.802917,1497.510376 797.188660,1496.592407 794.574463,1495.674561 
	C794.499695,1495.957275 794.424927,1496.239868 794.350159,1496.522583 
	C802.762085,1500.307617 811.174072,1504.092651 819.585999,1507.877686 
	C819.724915,1507.585938 819.863831,1507.294189 820.002747,1507.002441 
	C814.371521,1504.245605 808.740295,1501.488892 802.417175,1498.428345 
M544.913940,1132.028320 
	C555.213867,1131.774780 565.513733,1131.521240 575.813660,1131.267700 
	C575.802795,1131.072998 575.791931,1130.878174 575.781067,1130.683472 
	C563.099915,1130.683472 550.418701,1130.683472 537.318176,1130.683472 
	C539.846985,1131.192871 541.938477,1131.614136 544.913940,1132.028320 
M558.468628,1284.785645 
	C560.458069,1284.665894 562.452271,1284.597534 564.435425,1284.411133 
	C566.200012,1284.244995 567.952271,1283.948120 569.709961,1283.709106 
	C569.723267,1284.334717 569.736572,1284.960449 569.749878,1285.586182 
	C560.170044,1281.542603 550.466980,1282.180542 541.827942,1284.101929 
	C546.314331,1284.298828 551.896912,1284.543945 558.468628,1284.785645 
M895.573669,1047.898315 
	C890.896423,1044.826538 886.219177,1041.754639 881.541931,1038.682861 
	C881.280640,1039.106201 881.019348,1039.529663 880.757996,1039.953003 
	C888.262024,1044.859741 895.765991,1049.766357 903.270020,1054.673096 
	C903.567078,1054.210571 903.864136,1053.748047 904.161194,1053.285645 
	C901.477661,1051.663452 898.794128,1050.041382 895.573669,1047.898315 
M1163.500488,994.066467 
	C1160.181030,994.020813 1156.861450,993.924744 1153.542358,993.944519 
	C1150.495850,993.962708 1147.450195,994.105774 1144.404053,994.193848 
	C1144.416626,994.605652 1144.429077,995.017517 1144.441650,995.429321 
	C1158.395630,995.429321 1172.349609,995.429321 1186.303589,995.429321 
	C1186.306519,994.975037 1186.309570,994.520752 1186.312622,994.066467 
	C1179.041748,994.066467 1171.770874,994.066467 1163.500488,994.066467 
M368.690674,1211.127441 
	C361.571930,1210.600586 354.453186,1210.073730 347.334442,1209.546875 
	C347.315094,1210.158203 347.295776,1210.769653 347.276459,1211.381104 
	C357.399200,1211.381104 367.521973,1211.381104 377.644714,1211.381104 
	C377.655457,1211.308838 377.666229,1211.236572 377.676971,1211.164307 
	C374.995270,1211.164307 372.313538,1211.164307 368.690674,1211.127441 
M1019.413208,1051.839111 
	C1018.569519,1052.420898 1017.725830,1053.002563 1016.882141,1053.584229 
	C1017.180054,1053.949951 1017.478027,1054.315674 1017.776001,1054.681396 
	C1024.285767,1050.410767 1030.795410,1046.140137 1037.305176,1041.869385 
	C1037.051392,1041.466187 1036.797485,1041.062988 1036.543701,1040.659790 
	C1031.020020,1044.232178 1025.496338,1047.804565 1019.413208,1051.839111 
M344.073059,1428.979370 
	C348.681335,1428.620483 353.284180,1428.130493 357.899414,1427.941040 
	C362.230042,1427.763062 366.573669,1427.902832 370.911591,1427.902832 
	C357.498688,1425.523804 343.234863,1426.717407 338.097565,1430.696411 
	C340.611938,1429.944702 341.958038,1429.542236 344.073059,1428.979370 
M414.890808,1292.542236 
	C416.380890,1293.448730 417.870972,1294.355225 419.361053,1295.261719 
	C419.604156,1294.808838 419.847260,1294.356079 420.090363,1293.903320 
	C413.002319,1290.020020 405.914276,1286.136597 398.826233,1282.253296 
	C398.597351,1282.678467 398.368500,1283.103638 398.139648,1283.528687 
	C403.518738,1286.388306 408.897858,1289.247803 414.890808,1292.542236 
M1438.592529,1042.922974 
	C1434.059082,1046.088623 1429.525635,1049.254150 1424.992065,1052.419678 
	C1425.248413,1052.774780 1425.504761,1053.129761 1425.760986,1053.484863 
	C1431.614380,1049.593628 1437.467651,1045.702393 1443.321045,1041.811279 
	C1443.053955,1041.423584 1442.786987,1041.036011 1442.519897,1040.648315 
	C1441.459473,1041.395264 1440.398926,1042.142090 1438.592529,1042.922974 
M1206.945679,1497.999268 
	C1205.400513,1497.505127 1203.855225,1497.010864 1202.310059,1496.516724 
	C1202.232178,1496.716919 1202.154175,1496.917114 1202.076294,1497.117432 
	C1208.522217,1500.100952 1214.968018,1503.084595 1221.413818,1506.068237 
	C1221.588745,1505.687744 1221.763672,1505.307373 1221.938599,1504.926880 
	C1217.167236,1502.705688 1212.395996,1500.484375 1206.945679,1497.999268 
M788.617859,1428.977417 
	C783.629333,1428.611694 778.640808,1428.245850 773.652344,1427.880127 
	C773.648987,1428.011475 773.645691,1428.142822 773.642334,1428.274170 
	C781.658691,1429.268188 789.675110,1430.262207 797.691467,1431.256226 
	C797.737305,1430.895630 797.783142,1430.535034 797.828918,1430.174438 
	C795.060669,1429.761475 792.292358,1429.348633 788.617859,1428.977417 
M1219.286255,1072.075195 
	C1222.646118,1074.176758 1226.005981,1076.278320 1229.365845,1078.379883 
	C1229.629639,1077.895142 1229.893433,1077.410400 1230.157349,1076.925659 
	C1224.367676,1073.783447 1218.578125,1070.641357 1212.788574,1067.499146 
	C1212.597168,1067.869629 1212.405762,1068.240112 1212.214355,1068.610596 
	C1214.316406,1069.752075 1216.418335,1070.893555 1219.286255,1072.075195 
M795.223389,1279.567383 
	C796.740417,1280.075684 798.257507,1280.583862 799.774536,1281.092163 
	C799.767456,1281.111450 799.760376,1281.130859 799.753357,1281.150269 
	C798.402832,1280.657837 797.052307,1280.165283 795.223389,1279.567383 
M783.531433,1276.514526 
	C783.916748,1276.736694 784.302063,1276.958740 784.182800,1276.890015 
	C784.370056,1276.917480 783.942871,1276.854736 783.531433,1276.514526 
M1187.826294,1493.129272 
	C1187.424683,1493.054077 1187.023071,1492.979004 1186.621460,1492.903931 
	C1186.932007,1492.969360 1187.242432,1493.034790 1187.826294,1493.129272 
M1470.803223,1316.234375 
	C1470.688477,1316.383301 1470.596436,1316.562500 1470.451538,1316.671021 
	C1470.347656,1316.748779 1470.173340,1316.732178 1470.030396,1316.757812 
	C1470.212524,1316.605591 1470.394653,1316.453247 1470.803223,1316.234375 
M788.704224,1277.822021 
	C788.479980,1277.766479 788.255737,1277.710938 788.032593,1277.650269 
	C788.335754,1277.719482 788.638916,1277.788818 788.704224,1277.822021 
M1494.821777,1299.029785 
	C1494.821777,1299.029785 1495.160278,1298.975586 1495.160278,1298.975586 
	C1495.160278,1298.975586 1494.829102,1298.886230 1494.821777,1299.029785 
M1196.145752,1494.782104 
	C1196.165649,1494.806641 1196.195923,1494.837402 1196.145752,1494.782104 
M1199.003418,1495.837280 
	C1199.003418,1495.837280 1199.215698,1495.967896 1199.215698,1495.967896 
	C1199.215698,1495.967896 1199.045776,1495.711426 1199.003418,1495.837280 
M1074.732178,1092.894897 
	C1074.732178,1092.894897 1074.913818,1092.741333 1074.913818,1092.741333 
	C1074.913818,1092.741333 1074.815918,1093.002808 1074.732178,1092.894897 
M669.985718,1092.717773 
	C669.985718,1092.717773 669.780884,1093.062744 669.780884,1093.062744 
	C669.780884,1093.062744 669.951172,1092.848145 669.985718,1092.717773 
M792.040283,1278.721558 
	C792.040283,1278.721558 792.208252,1278.913696 792.208252,1278.913696 
	C792.208252,1278.913696 792.155029,1278.778076 792.040283,1278.721558 
M1478.721436,1310.960449 
	C1478.721436,1310.960449 1478.913818,1310.792480 1478.913818,1310.792480 
	C1478.913818,1310.792480 1478.778198,1310.845825 1478.721436,1310.960449 
M1075.732178,1308.894897 
	C1075.732178,1308.894897 1075.913818,1308.741333 1075.913818,1308.741333 
	C1075.913818,1308.741333 1075.815918,1309.002808 1075.732178,1308.894897 
M1079.782104,1305.854248 
	C1079.806641,1305.834351 1079.837402,1305.804077 1079.782104,1305.854248 
M804.039551,1282.721191 
	C804.039551,1282.721191 804.207886,1282.913086 804.207886,1282.913086 
	C804.207886,1282.913086 804.153870,1282.778320 804.039551,1282.721191 
M1091.992554,1080.732422 
	C1091.992554,1080.732422 1091.791992,1081.059570 1091.791992,1081.059570 
	C1091.791992,1081.059570 1091.950684,1080.857422 1091.992554,1080.732422 
M1524.945679,999.415771 
	C1525.270386,999.442932 1525.595215,999.470093 1525.920288,999.502075 
	C1525.687500,999.502075 1525.454590,999.502075 1524.945679,999.415771 
M626.072754,1045.651611 
	C625.965149,1045.604126 625.857605,1045.556641 625.750000,1045.509155 
	C625.825317,1045.472900 625.910461,1045.394775 625.973755,1045.409546 
	C626.083252,1045.435181 626.179138,1045.518799 626.072754,1045.651611 
M1094.658203,1078.921021 
	C1094.563232,1078.956421 1094.468262,1078.991943 1094.373291,1079.027466 
	C1094.436890,1078.920532 1094.500488,1078.813721 1094.658203,1078.921021 
M663.364075,1096.866699 
	C663.441895,1096.972046 663.519775,1097.077393 663.597595,1097.182739 
	C663.519897,1097.159180 663.442200,1097.135620 663.364075,1096.866699 
M1100.658691,1074.920654 
	C1100.565308,1074.956787 1100.471924,1074.992920 1100.378662,1075.029053 
	C1100.441162,1074.921997 1100.503662,1074.814941 1100.658691,1074.920654 
M1097.341797,1077.078979 
	C1097.436768,1077.043579 1097.531738,1077.008057 1097.626709,1076.972534 
	C1097.563110,1077.079346 1097.499390,1077.186279 1097.341797,1077.078979 
M1474.376343,1313.871460 
	C1474.450806,1313.850830 1474.525391,1313.830200 1474.599854,1313.809448 
	C1474.599121,1313.933716 1474.598267,1314.057983 1474.597412,1314.182251 
	C1474.523682,1314.159180 1474.449829,1314.135986 1474.376343,1313.871460 
M702.317261,1002.536804 
	C702.128418,1002.499146 701.939575,1002.461487 701.750732,1002.423889 
	C701.879700,1002.406494 702.008728,1002.389160 702.317261,1002.536804 
M1072.658203,1310.921021 
	C1072.563232,1310.956421 1072.468262,1310.991943 1072.373291,1311.027466 
	C1072.437012,1310.920654 1072.500610,1310.813843 1072.658203,1310.921021 
M1481.365234,1308.867310 
	C1481.442505,1308.972290 1481.519653,1309.077393 1481.596802,1309.182495 
	C1481.519653,1309.158936 1481.442383,1309.135376 1481.365234,1308.867310 
M621.526001,1265.506714 
	C621.526001,1265.506714 621.487305,1265.507080 621.526001,1265.506714 
M468.474060,614.478699 
	C468.474060,614.478699 468.625092,614.425903 468.474060,614.478699 
M667.050964,1094.458374 
	C667.236633,1094.517944 667.422302,1094.577515 667.607971,1094.637085 
	C667.548401,1094.466064 667.488831,1094.295166 667.050964,1094.458374 
M699.526001,1003.506897 
	C699.526001,1003.506897 699.487244,1003.507141 699.526001,1003.506897 
M683.479919,612.755676 
	C683.584778,612.679443 683.689636,612.603149 683.794556,612.526917 
	C683.704285,612.433960 683.619568,612.274841 683.522217,612.266663 
	C683.424194,612.258423 683.313660,612.400330 683.479919,612.755676 
M1240.354370,611.485535 
	C1240.354370,611.485535 1240.423340,611.480469 1240.354370,611.485535 
z"/>
<path fill="#7F7F7F" opacity="1.000000" stroke="none" 
	d="
M1025.496216,666.200928 
	C1025.330933,664.231079 1025.022583,662.261292 1025.021484,660.291382 
	C1024.994507,613.316223 1025.000610,566.341064 1025.000732,519.365906 
	C1025.000732,517.407227 1025.000732,515.448486 1025.000732,513.254028 
	C982.265015,513.254028 940.016724,513.254028 896.898376,513.254028 
	C896.898376,582.268921 896.898376,651.312317 896.641968,720.826416 
	C896.385559,721.297119 896.279724,721.225708 896.279785,721.225708 
	C896.186951,717.202087 896.014282,713.178528 896.013245,709.154907 
	C895.996521,645.358643 896.001831,581.562378 896.002136,517.766113 
	C896.002136,515.970032 896.002136,514.173889 896.002136,512.197021 
	C939.398987,512.197021 982.460388,512.197021 1025.997192,512.197021 
	C1025.997192,513.833191 1025.997192,515.438538 1025.997314,517.043884 
	C1025.998047,557.187195 1025.944336,597.330688 1026.042725,637.473755 
	C1026.063843,646.071899 1026.635132,654.668762 1026.712646,663.937378 
	C1026.146973,665.139404 1025.821655,665.670166 1025.496216,666.200928 
z"/>
<path fill="#696969" opacity="1.000000" stroke="none" 
	d="
M642.000000,357.028442 
	C653.807312,357.028503 665.114624,357.028503 676.697266,357.028503 
	C676.697266,415.649841 676.697266,474.041809 676.697266,532.433777 
	C676.486755,532.434753 676.276245,532.435791 676.065735,532.436829 
	C676.065735,474.554016 676.065735,416.671234 676.065735,358.394653 
	C633.375671,358.394653 591.140564,358.394653 548.271118,358.394653 
	C548.271118,416.990845 548.271118,475.699646 548.271118,534.408386 
	C547.947754,534.407898 547.624390,534.407410 547.301025,534.406860 
	C547.301025,475.455719 547.301025,416.504578 547.301025,357.028381 
	C578.642517,357.028381 610.071228,357.028381 642.000000,357.028442 
z"/>
<path fill="#696969" opacity="1.000000" stroke="none" 
	d="
M1368.921387,357.022827 
	C1371.064209,357.022003 1372.717773,357.022003 1374.702881,357.022003 
	C1374.702881,416.197388 1374.702881,475.247223 1374.702881,534.297058 
	C1374.493774,534.298950 1374.284790,534.300781 1374.075684,534.302673 
	C1374.075684,475.768860 1374.075684,417.235046 1374.075684,358.352692 
	C1331.253662,358.352692 1289.022827,358.352692 1246.149292,358.352692 
	C1246.149292,416.417816 1246.149292,474.454987 1246.149292,532.492126 
	C1245.855103,532.491211 1245.561035,532.490295 1245.266846,532.489319 
	C1245.266846,474.211212 1245.266846,415.933075 1245.266846,357.023682 
	C1286.266357,357.023682 1327.349243,357.023682 1368.921387,357.022827 
z"/>
<path fill="#BDBDBD" opacity="1.000000" stroke="none" 
	d="
M596.227661,1060.174072 
	C603.847656,1056.253296 611.146545,1052.583984 618.431824,1048.887817 
	C619.786194,1048.200684 621.085510,1047.404785 622.549255,1046.930176 
	C603.667236,1067.939087 541.725769,1075.287964 511.210968,1060.117310 
	C539.444275,1068.893066 567.674988,1070.067505 596.227661,1060.174072 
z"/>
<path fill="#FDFDFD" opacity="1.000000" stroke="none" 
	d="
M1025.494385,666.563721 
	C1025.821655,665.670166 1026.146973,665.139404 1026.619385,664.411621 
	C1026.836304,691.867249 1026.850098,719.520203 1027.029053,747.172119 
	C1027.060303,752.013611 1027.785889,756.850586 1028.190918,761.689636 
	C1027.700317,761.756348 1027.209717,761.823059 1026.719116,761.889709 
	C1026.309937,758.564941 1025.556763,755.241333 1025.545776,751.915222 
	C1025.451660,723.585938 1025.492432,695.256165 1025.494385,666.563721 
z"/>
<path fill="#BDBDBD" opacity="1.000000" stroke="none" 
	d="
M1378.632446,1284.242798 
	C1361.625366,1285.622070 1345.329590,1284.459717 1329.421997,1279.198853 
	C1342.957886,1282.616455 1356.702637,1282.954468 1370.557129,1283.010010 
	C1384.598999,1283.066284 1397.984619,1280.266602 1412.329590,1275.429199 
	C1406.132568,1279.803955 1393.353882,1283.000366 1378.632446,1284.242798 
z"/>
<path fill="#BDBDBD" opacity="1.000000" stroke="none" 
	d="
M1125.518311,1062.914307 
	C1141.559570,1057.636963 1157.873535,1059.000244 1173.948242,1058.099731 
	C1165.581421,1058.099731 1157.119629,1057.321411 1148.875122,1058.325562 
	C1141.120605,1059.269897 1133.425415,1061.613403 1126.015747,1064.225464 
	C1118.268066,1066.956787 1110.891968,1070.742188 1103.353516,1074.066895 
	C1103.149292,1073.610352 1102.945190,1073.153809 1102.741089,1072.697266 
	C1110.204712,1069.467407 1117.668457,1066.237671 1125.518311,1062.914307 
z"/>
<path fill="#BDBDBD" opacity="1.000000" stroke="none" 
	d="
M980.320679,1066.984009 
	C961.449280,1069.303711 943.205017,1068.714844 925.239746,1063.299683 
	C951.863342,1068.817017 978.254333,1069.071167 1004.252869,1059.724609 
	C1004.358643,1060.295288 1004.464417,1060.865967 1004.570190,1061.436523 
	C996.633911,1063.269897 988.697571,1065.103271 980.320679,1066.984009 
z"/>
<path fill="#BDBDBD" opacity="1.000000" stroke="none" 
	d="
M971.550598,1499.736328 
	C981.810181,1497.758667 991.708557,1496.086426 1001.079041,1494.503418 
	C988.848755,1501.879639 951.161255,1503.577759 930.112549,1497.875610 
	C942.846008,1498.546997 957.017761,1499.294434 971.550598,1499.736328 
z"/>
<path fill="#BDBDBD" opacity="1.000000" stroke="none" 
	d="
M1363.119873,1501.208252 
	C1353.278076,1500.300537 1343.916138,1499.393433 1334.554077,1498.486450 
	C1334.572144,1497.893311 1334.590210,1497.300171 1334.608398,1496.707031 
	C1359.263428,1501.862549 1383.655884,1501.206421 1407.779907,1494.123901 
	C1393.578003,1499.982910 1378.713989,1501.392456 1363.119873,1501.208252 
z"/>
<path fill="#BDBDBD" opacity="1.000000" stroke="none" 
	d="
M952.893311,1282.893066 
	C972.121338,1284.614990 990.168640,1281.374634 1007.791870,1275.237183 
	C984.305908,1285.873169 959.839661,1286.422607 934.923584,1282.044678 
	C940.754089,1282.332520 946.584595,1282.620239 952.893311,1282.893066 
z"/>
<path fill="#BDBDBD" opacity="1.000000" stroke="none" 
	d="
M1394.763794,1065.505493 
	C1378.468994,1068.744873 1362.517700,1069.040894 1346.473511,1066.338745 
	C1367.273438,1068.733398 1387.676758,1066.652832 1407.744385,1060.663208 
	C1407.817139,1061.071533 1407.889893,1061.479858 1407.962769,1061.888184 
	C1403.697021,1063.054077 1399.431396,1064.219849 1394.763794,1065.505493 
z"/>
<path fill="#BDBDBD" opacity="1.000000" stroke="none" 
	d="
M520.215942,1496.872803 
	C518.808411,1496.392334 517.767944,1495.993286 516.727539,1495.594238 
	C536.740662,1500.307007 556.931580,1501.180908 577.327271,1499.057983 
	C558.484436,1502.566772 538.232422,1501.667969 520.215942,1496.872803 
z"/>
<path fill="#BDBDBD" opacity="1.000000" stroke="none" 
	d="
M1147.890259,1493.125610 
	C1141.513184,1493.269409 1135.604492,1493.410889 1129.695801,1493.552368 
	C1129.698120,1494.006836 1129.700439,1494.461426 1129.702759,1494.916016 
	C1135.320190,1493.835571 1140.899170,1492.426147 1146.565430,1491.764893 
	C1152.492798,1491.072998 1158.503784,1490.879150 1164.478394,1490.876099 
	C1170.261230,1490.873047 1176.044189,1491.389648 1181.819702,1491.961060 
	C1172.197754,1491.961060 1162.575317,1491.910156 1152.954468,1492.013184 
	C1151.418701,1492.029663 1149.890381,1492.735962 1147.890259,1493.125610 
z"/>
<path fill="#BDBDBD" opacity="1.000000" stroke="none" 
	d="
M746.565430,1274.798462 
	C742.319214,1274.885376 738.488647,1275.119995 734.658142,1275.354736 
	C734.668701,1275.302368 734.679321,1275.249878 734.689880,1275.197510 
	C749.583801,1275.197510 764.477722,1275.197510 779.371643,1275.197510 
	C779.311707,1275.108887 779.251770,1275.020264 779.191772,1274.931641 
	C776.162476,1275.325439 773.125000,1276.102173 770.105408,1276.038086 
	C762.393066,1275.874146 754.688660,1275.335205 746.565430,1274.798462 
z"/>
<path fill="#BDBDBD" opacity="1.000000" stroke="none" 
	d="
M758.999878,1211.095825 
	C747.396240,1211.671143 736.292969,1212.246216 725.189697,1212.821411 
	C725.186646,1212.304321 725.183594,1211.787354 725.180542,1211.270264 
	C744.369446,1211.270264 763.558350,1211.270264 782.747253,1211.270264 
	C782.750916,1211.589966 782.754578,1211.909668 782.758301,1212.229370 
	C778.986084,1211.997437 775.215759,1211.727173 771.441223,1211.544067 
	C767.462952,1211.351318 763.480652,1211.241699 758.999878,1211.095825 
z"/>
<path fill="#BDBDBD" opacity="1.000000" stroke="none" 
	d="
M796.064331,1064.697510 
	C786.279480,1062.602417 776.787659,1060.655762 767.240540,1059.035034 
	C761.366333,1058.037842 755.407654,1057.538574 749.486877,1056.815796 
	C749.440552,1057.432617 749.394226,1058.049438 749.347900,1058.666260 
	C753.882385,1058.666260 758.470093,1059.112549 762.940857,1058.578979 
	C774.309692,1057.221924 784.991028,1060.250854 795.738647,1063.034790 
	C797.463074,1063.481567 797.419250,1063.650757 796.064331,1064.697510 
z"/>
<path fill="#BDBDBD" opacity="1.000000" stroke="none" 
	d="
M1144.754639,1275.735840 
	C1156.188110,1275.045410 1167.184082,1274.450928 1178.180054,1273.856445 
	C1178.210327,1274.439209 1178.240479,1275.021973 1178.270752,1275.604736 
	C1164.207886,1277.705811 1149.873169,1274.221802 1135.850708,1277.074829 
	C1138.672852,1276.660522 1141.495117,1276.246094 1144.754639,1275.735840 
z"/>
<path fill="#BDBDBD" opacity="1.000000" stroke="none" 
	d="
M1169.001221,1211.098633 
	C1158.393188,1211.097778 1148.284302,1211.097778 1140.933960,1211.097778 
	C1154.958740,1209.375854 1171.797241,1209.428711 1188.654297,1212.295898 
	C1185.589844,1212.101074 1182.525635,1211.903564 1179.461060,1211.712158 
	C1176.140991,1211.505005 1172.820679,1211.303467 1169.001221,1211.098633 
z"/>
<path fill="#7F7F7F" opacity="1.000000" stroke="none" 
	d="
M1185.627197,1428.985352 
	C1168.470459,1428.949951 1151.766602,1428.949951 1135.198120,1428.949951 
	C1140.880859,1425.844116 1180.985229,1426.178589 1197.812866,1430.355103 
	C1193.901855,1429.910278 1189.990845,1429.465576 1185.627197,1428.985352 
z"/>
<path fill="#FDFDFD" opacity="1.000000" stroke="none" 
	d="
M895.849121,721.321899 
	C896.279724,721.225708 896.385559,721.297119 896.445129,721.274170 
	C896.392212,734.745667 896.279785,748.240112 896.167297,761.734558 
	C895.917725,761.718018 895.668091,761.701477 895.418518,761.684937 
	C895.418518,748.262695 895.418518,734.840393 895.849121,721.321899 
z"/>
<path fill="#BDBDBD" opacity="1.000000" stroke="none" 
	d="
M1554.607666,1210.820068 
	C1564.002930,1210.002930 1573.148071,1208.738403 1581.868042,1212.689941 
	C1566.941528,1208.858398 1552.076172,1212.178711 1537.126953,1212.071655 
	C1542.847656,1211.774292 1548.568237,1211.476929 1554.607666,1210.820068 
z"/>
<path fill="#BDBDBD" opacity="1.000000" stroke="none" 
	d="
M600.187378,1275.260498 
	C606.572998,1271.936523 612.662415,1268.876709 618.751770,1265.816895 
	C607.274109,1274.507812 594.517090,1280.134155 580.150574,1281.795166 
	C586.730774,1279.704956 593.310974,1277.614746 600.187378,1275.260498 
z"/>
<path fill="#7F7F7F" opacity="1.000000" stroke="none" 
	d="
M1165.017822,615.016724 
	C1166.716431,614.342407 1168.411377,613.091858 1170.114014,613.081421 
	C1190.773315,612.954712 1211.433716,613.030090 1232.093750,612.989624 
	C1234.179565,612.985535 1236.264771,612.568604 1238.468872,613.106995 
	C1236.374512,613.398560 1234.280884,613.936279 1232.185547,613.943298 
	C1212.858643,614.008301 1193.531006,613.939331 1174.204346,614.028381 
	C1171.411743,614.041260 1168.621948,614.684753 1165.414551,615.017212 
	C1164.998047,614.998047 1165.017822,615.016724 1165.017822,615.016724 
z"/>
<path fill="#7F7F7F" opacity="1.000000" stroke="none" 
	d="
M1372.987427,1564.957397 
	C1364.209595,1564.927246 1355.928467,1564.927246 1347.647217,1564.927246 
	C1347.645752,1564.434570 1347.644409,1563.941895 1347.642944,1563.449219 
	C1362.590576,1563.449219 1377.538086,1563.449219 1392.485718,1563.449219 
	C1392.495605,1563.321289 1392.505371,1563.193359 1392.515259,1563.065430 
	C1386.171509,1563.706177 1379.827759,1564.346802 1372.987427,1564.957397 
z"/>
<path fill="#FDFDFD" opacity="1.000000" stroke="none" 
	d="
M1375.112671,604.071777 
	C1374.874146,588.695923 1374.709595,573.717224 1374.599609,558.738159 
	C1374.545044,551.297302 1374.590332,543.855774 1374.590332,536.414490 
	C1375.071899,536.412720 1375.553589,536.410889 1376.035156,536.409058 
	C1376.035156,559.955872 1376.035156,583.502686 1376.035156,606.410461 
	C1375.968872,606.254700 1375.589111,605.361755 1375.112671,604.071777 
z"/>
<path fill="#7F7F7F" opacity="1.000000" stroke="none" 
	d="
M540.157837,1563.663330 
	C551.629822,1563.676514 562.652100,1563.676514 573.674316,1563.676514 
	C573.674255,1563.915649 573.674133,1564.154663 573.674072,1564.393799 
	C561.151550,1564.393799 548.629089,1564.393799 536.106567,1564.393799 
	C536.069214,1564.208740 536.031799,1564.023560 535.994446,1563.838501 
	C537.232361,1563.775757 538.470215,1563.713013 540.157837,1563.663330 
z"/>
<path fill="#FDFDFD" opacity="1.000000" stroke="none" 
	d="
M545.995911,576.000000 
	C545.995911,562.424988 545.995911,549.349976 545.995911,536.274963 
	C548.556213,542.478821 547.542603,602.777954 545.995911,605.802307 
	C545.995911,596.837952 545.995911,586.669006 545.995911,576.000000 
z"/>
<path fill="#7F7F7F" opacity="1.000000" stroke="none" 
	d="
M1441.969238,613.018494 
	C1445.569336,613.018677 1448.674683,613.018677 1451.780029,613.018677 
	C1451.771729,613.195129 1451.763428,613.371521 1451.755249,613.547974 
	C1428.787231,613.547974 1405.819336,613.547974 1382.851318,613.547974 
	C1382.853516,613.371399 1382.855713,613.194885 1382.857910,613.018311 
	C1402.396851,613.018311 1421.935669,613.018311 1441.969238,613.018494 
z"/>
<path fill="#BDBDBD" opacity="1.000000" stroke="none" 
	d="
M779.249756,1492.819336 
	C768.464172,1492.844971 757.990845,1492.844971 747.517517,1492.844971 
	C747.513245,1492.326172 747.508911,1491.807495 747.504639,1491.288696 
	C755.739990,1491.288696 763.976440,1491.214478 772.210022,1491.333984 
	C774.676147,1491.369873 777.135864,1491.936890 779.594604,1492.287231 
	C779.903503,1492.331299 780.189026,1492.538818 780.485352,1492.670654 
	C780.177612,1492.711670 779.869812,1492.752686 779.249756,1492.819336 
z"/>
<path fill="#7F7F7F" opacity="1.000000" stroke="none" 
	d="
M496.000000,613.017334 
	C510.621674,613.017090 524.743347,613.017090 538.865051,613.017090 
	C538.866638,613.231934 538.868225,613.446777 538.869873,613.661621 
	C516.030334,613.661621 493.190826,613.661621 470.351288,613.661621 
	C470.343658,613.446899 470.336029,613.232239 470.328400,613.017517 
	C478.718933,613.017517 487.109467,613.017517 496.000000,613.017334 
z"/>
<path fill="#FDFDFD" opacity="1.000000" stroke="none" 
	d="
M1245.318481,570.000244 
	C1245.318481,581.096985 1245.318481,591.693787 1245.318481,602.290527 
	C1245.006226,602.289917 1244.694092,602.289307 1244.381836,602.288696 
	C1244.381836,579.693787 1244.381836,557.098877 1244.381836,534.503967 
	C1244.694092,534.495239 1245.006226,534.486511 1245.318481,534.477783 
	C1245.318481,546.151917 1245.318481,557.826050 1245.318481,570.000244 
z"/>
<path fill="#FDFDFD" opacity="1.000000" stroke="none" 
	d="
M678.004089,569.000000 
	C678.004089,580.432251 678.004089,591.364502 678.004089,602.296814 
	C677.726624,602.298340 677.449097,602.299866 677.171631,602.301392 
	C677.171631,579.706299 677.171631,557.111206 677.171631,534.516113 
	C677.449097,534.507080 677.726624,534.498108 678.004089,534.489075 
	C678.004089,545.826050 678.004089,557.163025 678.004089,569.000000 
z"/>
<path fill="#7F7F7F" opacity="1.000000" stroke="none" 
	d="
M1561.004761,994.003601 
	C1566.334473,994.045715 1571.168579,994.045715 1576.002563,994.045715 
	C1575.976562,994.099670 1575.950439,994.153625 1575.924438,994.207642 
	C1560.298950,995.387817 1544.673462,996.568054 1529.048096,997.748291 
	C1529.012085,997.309875 1528.976074,996.871521 1528.940186,996.433105 
	C1539.463135,995.609192 1549.986084,994.785339 1561.004761,994.003601 
z"/>
<path fill="#7F7F7F" opacity="1.000000" stroke="none" 
	d="
M694.100037,613.983459 
	C691.029907,613.983398 688.442322,613.983398 685.854797,613.983398 
	C685.857605,613.745361 685.860352,613.507324 685.863098,613.269287 
	C708.509399,613.269287 731.155640,613.269287 753.801941,613.269287 
	C753.802429,613.507385 753.802856,613.745422 753.803345,613.983521 
	C734.063110,613.983521 714.322876,613.983521 694.100037,613.983459 
z"/>
<path fill="#BDBDBD" opacity="1.000000" stroke="none" 
	d="
M1096.812744,768.026001 
	C1098.738892,768.025269 1100.189941,768.025269 1101.640991,768.025269 
	C1101.639771,768.264038 1101.638550,768.502808 1101.637207,768.741577 
	C1079.479248,768.741577 1057.321411,768.741577 1035.163452,768.741577 
	C1035.161865,768.503296 1035.160156,768.264954 1035.158569,768.026672 
	C1055.551636,768.026672 1075.944580,768.026672 1096.812744,768.026001 
z"/>
<path fill="#BDBDBD" opacity="1.000000" stroke="none" 
	d="
M877.909119,768.025879 
	C881.198059,768.025757 884.004028,768.025757 886.809998,768.025757 
	C886.808777,768.264099 886.807495,768.502380 886.806213,768.740723 
	C864.660461,768.740723 842.514648,768.740723 820.368896,768.740723 
	C820.367188,768.502502 820.365479,768.264221 820.363770,768.026001 
	C839.384583,768.026001 858.405334,768.026001 877.909119,768.025879 
z"/>
<path fill="#BDBDBD" opacity="1.000000" stroke="none" 
	d="
M705.452637,1001.043335 
	C717.352722,996.251160 729.887207,993.674377 737.156494,995.140869 
	C730.464539,996.437256 718.130188,998.826721 705.452637,1001.043335 
z"/>
<path fill="#7F7F7F" opacity="1.000000" stroke="none" 
	d="
M765.760742,1427.007324 
	C767.675903,1426.978149 769.123108,1426.978149 770.570312,1426.978149 
	C770.567444,1427.099365 770.564575,1427.220581 770.561768,1427.341919 
	C754.743469,1428.138062 738.925232,1428.934326 722.053467,1429.783569 
	C736.964478,1426.011475 751.185181,1427.323608 765.760742,1427.007324 
z"/>
<path fill="#7F7F7F" opacity="1.000000" stroke="none" 
	d="
M972.071167,1563.751343 
	C974.488281,1563.731812 976.462830,1563.731812 978.437378,1563.731812 
	C978.442993,1564.112793 978.448669,1564.493896 978.454285,1564.874878 
	C972.281799,1564.874878 966.109253,1564.874878 959.936768,1564.874878 
	C953.820251,1564.874878 947.703735,1564.874878 941.587219,1564.874878 
	C941.583557,1564.506836 941.579834,1564.138916 941.576172,1563.770874 
	C951.593689,1563.770874 961.611145,1563.770874 972.071167,1563.751343 
z"/>
<path fill="#7F7F7F" opacity="1.000000" stroke="none" 
	d="
M1357.253174,1132.019531 
	C1353.676880,1131.679932 1350.566772,1131.344727 1347.456787,1131.009399 
	C1347.455078,1130.905029 1347.453247,1130.800781 1347.451416,1130.696533 
	C1360.499268,1130.696533 1373.546997,1130.696533 1386.594849,1130.696533 
	C1386.605835,1130.866455 1386.616821,1131.036377 1386.627808,1131.206421 
	C1376.991699,1131.478760 1367.355591,1131.751221 1357.253174,1132.019531 
z"/>
<path fill="#BDBDBD" opacity="1.000000" stroke="none" 
	d="
M701.772217,1072.848267 
	C697.213196,1075.463379 692.960693,1077.848267 688.708191,1080.233276 
	C688.449219,1079.759033 688.190308,1079.284668 687.931335,1078.810425 
	C696.301208,1074.184326 704.671021,1069.558350 713.040894,1064.932251 
	C713.343811,1065.482544 713.646729,1066.032715 713.949646,1066.582886 
	C709.992676,1068.594604 706.035706,1070.606323 701.772217,1072.848267 
z"/>
<path fill="#BDBDBD" opacity="1.000000" stroke="none" 
	d="
M802.763062,1498.580200 
	C808.740295,1501.488892 814.371521,1504.245605 820.002747,1507.002441 
	C819.863831,1507.294189 819.724915,1507.585938 819.585999,1507.877686 
	C811.174072,1504.092651 802.762085,1500.307617 794.350159,1496.522583 
	C794.424927,1496.239868 794.499695,1495.957275 794.574463,1495.674561 
	C797.188660,1496.592407 799.802917,1497.510376 802.763062,1498.580200 
z"/>
<path fill="#7F7F7F" opacity="1.000000" stroke="none" 
	d="
M544.471924,1132.031860 
	C541.938477,1131.614136 539.846985,1131.192871 537.318176,1130.683472 
	C550.418701,1130.683472 563.099915,1130.683472 575.781067,1130.683472 
	C575.791931,1130.878174 575.802795,1131.072998 575.813660,1131.267700 
	C565.513733,1131.521240 555.213867,1131.774780 544.471924,1132.031860 
z"/>
<path fill="#BDBDBD" opacity="1.000000" stroke="none" 
	d="
M557.973999,1284.787354 
	C551.896912,1284.543945 546.314331,1284.298828 541.827942,1284.101929 
	C550.466980,1282.180542 560.170044,1281.542603 569.749878,1285.586182 
	C569.736572,1284.960449 569.723267,1284.334717 569.709961,1283.709106 
	C567.952271,1283.948120 566.200012,1284.244995 564.435425,1284.411133 
	C562.452271,1284.597534 560.458069,1284.665894 557.973999,1284.787354 
z"/>
<path fill="#BDBDBD" opacity="1.000000" stroke="none" 
	d="
M895.842163,1048.158813 
	C898.794128,1050.041382 901.477661,1051.663452 904.161194,1053.285645 
	C903.864136,1053.748047 903.567078,1054.210571 903.270020,1054.673096 
	C895.765991,1049.766357 888.262024,1044.859741 880.757996,1039.953003 
	C881.019348,1039.529663 881.280640,1039.106201 881.541931,1038.682861 
	C886.219177,1041.754639 890.896423,1044.826538 895.842163,1048.158813 
z"/>
<path fill="#7F7F7F" opacity="1.000000" stroke="none" 
	d="
M1164.000244,994.066467 
	C1171.770874,994.066467 1179.041748,994.066467 1186.312622,994.066467 
	C1186.309570,994.520752 1186.306519,994.975037 1186.303589,995.429321 
	C1172.349609,995.429321 1158.395630,995.429321 1144.441650,995.429321 
	C1144.429077,995.017517 1144.416626,994.605652 1144.404053,994.193848 
	C1147.450195,994.105774 1150.495850,993.962708 1153.542358,993.944519 
	C1156.861450,993.924744 1160.181030,994.020813 1164.000244,994.066467 
z"/>
<path fill="#BDBDBD" opacity="1.000000" stroke="none" 
	d="
M369.161255,1211.145874 
	C372.313538,1211.164307 374.995270,1211.164307 377.676971,1211.164307 
	C377.666229,1211.236572 377.655457,1211.308838 377.644714,1211.381104 
	C367.521973,1211.381104 357.399200,1211.381104 347.276459,1211.381104 
	C347.295776,1210.769653 347.315094,1210.158203 347.334442,1209.546875 
	C354.453186,1210.073730 361.571930,1210.600586 369.161255,1211.145874 
z"/>
<path fill="#BDBDBD" opacity="1.000000" stroke="none" 
	d="
M1503.242554,1294.177368 
	C1510.438721,1289.723389 1517.634888,1285.269409 1524.831055,1280.815430 
	C1525.207520,1281.487793 1525.583984,1282.160278 1525.960571,1282.832642 
	C1518.457275,1286.347290 1510.954102,1289.861938 1503.321045,1293.764038 
	C1503.191162,1294.151611 1503.242554,1294.177368 1503.242554,1294.177368 
z"/>
<path fill="#BDBDBD" opacity="1.000000" stroke="none" 
	d="
M1019.692871,1051.608032 
	C1025.496338,1047.804565 1031.020020,1044.232178 1036.543701,1040.659790 
	C1036.797485,1041.062988 1037.051392,1041.466187 1037.305176,1041.869385 
	C1030.795410,1046.140137 1024.285767,1050.410767 1017.776001,1054.681396 
	C1017.478027,1054.315674 1017.180054,1053.949951 1016.882141,1053.584229 
	C1017.725830,1053.002563 1018.569519,1052.420898 1019.692871,1051.608032 
z"/>
<path fill="#BDBDBD" opacity="1.000000" stroke="none" 
	d="
M1098.701050,1292.592041 
	C1105.501465,1288.731445 1112.301758,1284.870728 1119.102173,1281.010132 
	C1119.365234,1281.493652 1119.628296,1281.977295 1119.891235,1282.460815 
	C1113.194214,1285.993774 1106.497192,1289.526733 1099.336670,1292.943848 
	C1098.873047,1292.828125 1098.701050,1292.592041 1098.701050,1292.592041 
z"/>
<path fill="#7F7F7F" opacity="1.000000" stroke="none" 
	d="
M343.688599,1429.059570 
	C341.958038,1429.542236 340.611938,1429.944702 338.097565,1430.696411 
	C343.234863,1426.717407 357.498688,1425.523804 370.911591,1427.902832 
	C366.573669,1427.902832 362.230042,1427.763062 357.899414,1427.941040 
	C353.284180,1428.130493 348.681335,1428.620483 343.688599,1429.059570 
z"/>
<path fill="#BDBDBD" opacity="1.000000" stroke="none" 
	d="
M414.583862,1292.324829 
	C408.897858,1289.247803 403.518738,1286.388306 398.139648,1283.528687 
	C398.368500,1283.103638 398.597351,1282.678467 398.826233,1282.253296 
	C405.914276,1286.136597 413.002319,1290.020020 420.090363,1293.903320 
	C419.847260,1294.356079 419.604156,1294.808838 419.361053,1295.261719 
	C417.870972,1294.355225 416.380890,1293.448730 414.583862,1292.324829 
z"/>
<path fill="#BDBDBD" opacity="1.000000" stroke="none" 
	d="
M377.069397,995.156250 
	C385.257233,996.380554 393.445038,997.604858 401.632874,998.829163 
	C401.580811,999.214783 401.528717,999.600403 401.476654,999.986023 
	C393.586975,998.674988 385.697296,997.363953 377.431763,995.785278 
	C377.055908,995.517578 377.069397,995.156250 377.069397,995.156250 
z"/>
<path fill="#BDBDBD" opacity="1.000000" stroke="none" 
	d="
M1438.965576,1042.906006 
	C1440.398926,1042.142090 1441.459473,1041.395264 1442.519897,1040.648315 
	C1442.786987,1041.036011 1443.053955,1041.423584 1443.321045,1041.811279 
	C1437.467651,1045.702393 1431.614380,1049.593628 1425.760986,1053.484863 
	C1425.504761,1053.129761 1425.248413,1052.774780 1424.992065,1052.419678 
	C1429.525635,1049.254150 1434.059082,1046.088623 1438.965576,1042.906006 
z"/>
<path fill="#BDBDBD" opacity="1.000000" stroke="none" 
	d="
M1207.285156,1498.131226 
	C1212.395996,1500.484375 1217.167236,1502.705688 1221.938599,1504.926880 
	C1221.763672,1505.307373 1221.588745,1505.687744 1221.413818,1506.068237 
	C1214.968018,1503.084595 1208.522217,1500.100952 1202.076294,1497.117432 
	C1202.154175,1496.917114 1202.232178,1496.716919 1202.310059,1496.516724 
	C1203.855225,1497.010864 1205.400513,1497.505127 1207.285156,1498.131226 
z"/>
<path fill="#7F7F7F" opacity="1.000000" stroke="none" 
	d="
M376.631592,995.071777 
	C377.069397,995.156250 377.055908,995.517578 377.060852,995.698303 
	C366.769470,995.879028 356.473114,995.879028 346.176758,995.879028 
	C346.191498,995.111572 346.206238,994.344116 346.220978,993.576660 
	C356.211914,994.046875 366.202850,994.517090 376.631592,995.071777 
z"/>
<path fill="#7F7F7F" opacity="1.000000" stroke="none" 
	d="
M789.070923,1428.956543 
	C792.292358,1429.348633 795.060669,1429.761475 797.828918,1430.174438 
	C797.783142,1430.535034 797.737305,1430.895630 797.691467,1431.256226 
	C789.675110,1430.262207 781.658691,1429.268188 773.642334,1428.274170 
	C773.645691,1428.142822 773.648987,1428.011475 773.652344,1427.880127 
	C778.640808,1428.245850 783.629333,1428.611694 789.070923,1428.956543 
z"/>
<path fill="#BDBDBD" opacity="1.000000" stroke="none" 
	d="
M1218.903320,1072.055176 
	C1216.418335,1070.893555 1214.316406,1069.752075 1212.214355,1068.610596 
	C1212.405762,1068.240112 1212.597168,1067.869629 1212.788574,1067.499146 
	C1218.578125,1070.641357 1224.367676,1073.783447 1230.157349,1076.925659 
	C1229.893433,1077.410400 1229.629639,1077.895142 1229.365845,1078.379883 
	C1226.005981,1076.278320 1222.646118,1074.176758 1218.903320,1072.055176 
z"/>
<path fill="#BDBDBD" opacity="1.000000" stroke="none" 
	d="
M795.462585,1279.620117 
	C797.052307,1280.165283 798.402832,1280.657837 799.753357,1281.150269 
	C799.760376,1281.130859 799.767456,1281.111450 799.774536,1281.092163 
	C798.257507,1280.583862 796.740417,1280.075684 795.462585,1279.620117 
z"/>
<path fill="#BDBDBD" opacity="1.000000" stroke="none" 
	d="
M1098.963135,1292.942993 
	C1098.601196,1293.694824 1098.276489,1294.555908 1097.661255,1294.905640 
	C1097.046143,1295.255127 1096.140015,1295.092529 1094.661255,1295.210083 
	C1096.157715,1294.145020 1097.136230,1293.448608 1098.407959,1292.672119 
	C1098.701050,1292.592041 1098.873047,1292.828125 1098.963135,1292.942993 
z"/>
<path fill="#BDBDBD" opacity="1.000000" stroke="none" 
	d="
M783.523560,1276.653320 
	C783.942871,1276.854736 784.370056,1276.917480 784.182800,1276.890015 
	C784.302063,1276.958740 783.916748,1276.736694 783.523560,1276.653320 
z"/>
<path fill="#BDBDBD" opacity="1.000000" stroke="none" 
	d="
M1187.689697,1493.114746 
	C1187.242432,1493.034790 1186.932007,1492.969360 1186.621460,1492.903931 
	C1187.023071,1492.979004 1187.424683,1493.054077 1187.689697,1493.114746 
z"/>
<path fill="#BDBDBD" opacity="1.000000" stroke="none" 
	d="
M1084.150635,1303.047852 
	C1084.674805,1302.583984 1085.199097,1302.120239 1085.270386,1302.057129 
	C1085.282227,1302.052002 1084.735352,1302.285400 1084.149658,1302.781006 
	C1084.110840,1303.043457 1084.150635,1303.047852 1084.150635,1303.047852 
z"/>
<path fill="#BDBDBD" opacity="1.000000" stroke="none" 
	d="
M1499.891235,1295.982422 
	C1499.367188,1296.338501 1498.843018,1296.694458 1499.091675,1296.525635 
	C1498.691040,1296.644287 1499.161987,1296.504761 1499.785645,1296.175415 
	C1499.938232,1295.985718 1499.891235,1295.982422 1499.891235,1295.982422 
z"/>
<path fill="#BDBDBD" opacity="1.000000" stroke="none" 
	d="
M1490.183472,1303.077393 
	C1490.701782,1302.599365 1491.220215,1302.121216 1491.279419,1302.066528 
	C1491.307129,1302.054443 1490.760498,1302.293701 1490.177734,1302.801392 
	C1490.141357,1303.069824 1490.183472,1303.077393 1490.183472,1303.077393 
z"/>
<path fill="#BDBDBD" opacity="1.000000" stroke="none" 
	d="
M1499.946777,1296.005127 
	C1500.828613,1295.448608 1501.701904,1294.872803 1502.908936,1294.237061 
	C1503.242554,1294.177368 1503.191162,1294.151611 1503.176758,1294.135254 
	C1502.171021,1294.532104 1501.179565,1294.945312 1500.039673,1295.670410 
	C1499.891235,1295.982422 1499.938232,1295.985718 1499.946777,1296.005127 
z"/>
<path fill="#BDBDBD" opacity="1.000000" stroke="none" 
	d="
M1487.066284,1305.009521 
	C1487.973145,1304.544556 1488.880127,1304.079590 1489.985229,1303.345947 
	C1490.183472,1303.077393 1490.141357,1303.069824 1490.127441,1303.072510 
	C1489.142700,1303.501831 1488.172119,1303.928467 1487.120361,1304.682129 
	C1487.039185,1305.009155 1487.066284,1305.009521 1487.066284,1305.009521 
z"/>
<path fill="#BDBDBD" opacity="1.000000" stroke="none" 
	d="
M1470.689941,1316.267700 
	C1470.394653,1316.453247 1470.212524,1316.605591 1470.030396,1316.757812 
	C1470.173340,1316.732178 1470.347656,1316.748779 1470.451538,1316.671021 
	C1470.596436,1316.562500 1470.688477,1316.383301 1470.689941,1316.267700 
z"/>
<path fill="#BDBDBD" opacity="1.000000" stroke="none" 
	d="
M1090.933350,1297.999023 
	C1090.361328,1298.272217 1089.789307,1298.545410 1088.625610,1299.101196 
	C1089.764282,1298.787476 1090.276001,1298.646484 1090.877563,1298.253418 
	C1090.967407,1298.001221 1090.933350,1297.999023 1090.933350,1297.999023 
z"/>
<path fill="#BDBDBD" opacity="1.000000" stroke="none" 
	d="
M788.823181,1277.840088 
	C788.638916,1277.788818 788.335754,1277.719482 788.032104,1277.652832 
	C788.255737,1277.710938 788.479980,1277.766479 788.823181,1277.840088 
z"/>
<path fill="#BDBDBD" opacity="1.000000" stroke="none" 
	d="
M675.077271,1089.011597 
	C675.560303,1088.598511 676.043335,1088.185425 676.525330,1087.771484 
	C676.058716,1088.014282 675.593079,1088.257812 675.087769,1088.756470 
	C675.048035,1089.011475 675.077271,1089.011597 675.077271,1089.011597 
z"/>
<path fill="#BDBDBD" opacity="1.000000" stroke="none" 
	d="
M681.928284,1083.992798 
	C681.369080,1084.258789 680.809937,1084.524780 679.122620,1085.327393 
	C680.823792,1084.838501 681.337341,1084.690796 681.907349,1084.269409 
	C681.963806,1083.995605 681.928284,1083.992798 681.928284,1083.992798 
z"/>
<path fill="#BDBDBD" opacity="1.000000" stroke="none" 
	d="
M1079.067383,1090.010254 
	C1079.542114,1089.601562 1080.016846,1089.192749 1080.491821,1088.784180 
	C1080.035522,1089.022949 1079.578857,1089.261475 1079.081299,1089.754883 
	C1079.040161,1090.009888 1079.067383,1090.010254 1079.067383,1090.010254 
z"/>
<path fill="#BDBDBD" opacity="1.000000" stroke="none" 
	d="
M681.968201,1084.010986 
	C682.535950,1083.621460 683.099304,1083.216797 683.560364,1082.885620 
	C683.138367,1083.046265 682.593933,1083.253540 681.988892,1083.726807 
	C681.928284,1083.992798 681.963806,1083.995605 681.968201,1084.010986 
z"/>
<path fill="#BDBDBD" opacity="1.000000" stroke="none" 
	d="
M1086.077271,1085.010742 
	C1086.533447,1084.604614 1086.989502,1084.198364 1087.445801,1083.792358 
	C1087.005127,1084.030640 1086.564087,1084.268555 1086.085449,1084.758667 
	C1086.047852,1085.010742 1086.077271,1085.010742 1086.077271,1085.010742 
z"/>
<path fill="#BDBDBD" opacity="1.000000" stroke="none" 
	d="
M1090.970703,1298.016602 
	C1091.268066,1297.727173 1091.562012,1297.422485 1091.855957,1297.117920 
	C1091.695801,1297.170166 1091.526367,1297.204346 1091.377808,1297.279785 
	C1091.238403,1297.350708 1091.121216,1297.465454 1090.963867,1297.780029 
	C1090.933350,1297.999023 1090.967407,1298.001221 1090.970703,1298.016602 
z"/>
<path fill="#BDBDBD" opacity="1.000000" stroke="none" 
	d="
M1494.825439,1298.958008 
	C1494.829102,1298.886230 1495.160278,1298.975586 1495.160278,1298.975586 
	C1495.160278,1298.975586 1494.821777,1299.029785 1494.825439,1298.958008 
z"/>
<path fill="#BDBDBD" opacity="1.000000" stroke="none" 
	d="
M1079.033569,1090.006836 
	C1078.699707,1090.151001 1078.372437,1090.298218 1078.045166,1090.445557 
	C1078.371094,1090.419922 1078.697021,1090.394287 1079.045166,1090.189453 
	C1079.067383,1090.010254 1079.040161,1090.009888 1079.033569,1090.006836 
z"/>
<path fill="#BDBDBD" opacity="1.000000" stroke="none" 
	d="
M1196.191040,1494.828369 
	C1196.195923,1494.837402 1196.165649,1494.806641 1196.191040,1494.828369 
z"/>
<path fill="#BDBDBD" opacity="1.000000" stroke="none" 
	d="
M1199.024658,1495.774414 
	C1199.045776,1495.711426 1199.215698,1495.967896 1199.215698,1495.967896 
	C1199.215698,1495.967896 1199.003418,1495.837280 1199.024658,1495.774414 
z"/>
<path fill="#BDBDBD" opacity="1.000000" stroke="none" 
	d="
M1074.774048,1092.948853 
	C1074.815918,1093.002808 1074.913818,1092.741333 1074.913818,1092.741333 
	C1074.913818,1092.741333 1074.732178,1092.894897 1074.774048,1092.948853 
z"/>
<path fill="#BDBDBD" opacity="1.000000" stroke="none" 
	d="
M669.968445,1092.782959 
	C669.951172,1092.848145 669.780884,1093.062744 669.780884,1093.062744 
	C669.780884,1093.062744 669.985718,1092.717773 669.968445,1092.782959 
z"/>
<path fill="#BDBDBD" opacity="1.000000" stroke="none" 
	d="
M792.097656,1278.749756 
	C792.155029,1278.778076 792.208252,1278.913696 792.208252,1278.913696 
	C792.208252,1278.913696 792.040283,1278.721558 792.097656,1278.749756 
z"/>
<path fill="#BDBDBD" opacity="1.000000" stroke="none" 
	d="
M1086.039795,1085.008545 
	C1085.701050,1085.152832 1085.370117,1085.299072 1085.039307,1085.445312 
	C1085.368774,1085.420532 1085.698242,1085.395752 1086.052490,1085.190918 
	C1086.077271,1085.010742 1086.047852,1085.010742 1086.039795,1085.008545 
z"/>
<path fill="#BDBDBD" opacity="1.000000" stroke="none" 
	d="
M1478.749756,1310.903076 
	C1478.778198,1310.845825 1478.913818,1310.792480 1478.913818,1310.792480 
	C1478.913818,1310.792480 1478.721436,1310.960449 1478.749756,1310.903076 
z"/>
<path fill="#BDBDBD" opacity="1.000000" stroke="none" 
	d="
M1075.774048,1308.948853 
	C1075.815918,1309.002808 1075.913818,1308.741333 1075.913818,1308.741333 
	C1075.913818,1308.741333 1075.732178,1308.894897 1075.774048,1308.948853 
z"/>
<path fill="#BDBDBD" opacity="1.000000" stroke="none" 
	d="
M1079.828369,1305.808960 
	C1079.837402,1305.804077 1079.806641,1305.834351 1079.828369,1305.808960 
z"/>
<path fill="#BDBDBD" opacity="1.000000" stroke="none" 
	d="
M1487.032715,1305.005981 
	C1486.699463,1305.150391 1486.372559,1305.297852 1486.045776,1305.445435 
	C1486.371460,1305.419556 1486.697021,1305.393677 1487.044434,1305.188721 
	C1487.066284,1305.009521 1487.039185,1305.009155 1487.032715,1305.005981 
z"/>
<path fill="#BDBDBD" opacity="1.000000" stroke="none" 
	d="
M804.096680,1282.749756 
	C804.153870,1282.778320 804.207886,1282.913086 804.207886,1282.913086 
	C804.207886,1282.913086 804.039551,1282.721191 804.096680,1282.749756 
z"/>
<path fill="#BDBDBD" opacity="1.000000" stroke="none" 
	d="
M1091.971680,1080.794922 
	C1091.950684,1080.857422 1091.791992,1081.059570 1091.791992,1081.059570 
	C1091.791992,1081.059570 1091.992554,1080.732422 1091.971680,1080.794922 
z"/>
<path fill="#BDBDBD" opacity="1.000000" stroke="none" 
	d="
M1084.095825,1303.050049 
	C1083.781494,1303.083740 1083.478638,1303.093506 1083.187012,1303.156250 
	C1083.144409,1303.165405 1083.156006,1303.426636 1083.142578,1303.571167 
	C1083.429688,1303.512451 1083.716919,1303.453613 1084.077393,1303.221313 
	C1084.150635,1303.047852 1084.110840,1303.043457 1084.095825,1303.050049 
z"/>
<path fill="#7F7F7F" opacity="1.000000" stroke="none" 
	d="
M1525.083740,999.458923 
	C1525.454590,999.502075 1525.687500,999.502075 1525.920166,999.499634 
	C1525.595215,999.470093 1525.270386,999.442932 1525.083740,999.458923 
z"/>
<path fill="#BDBDBD" opacity="1.000000" stroke="none" 
	d="
M675.040161,1089.009399 
	C674.701965,1089.153198 674.371582,1089.298950 674.041199,1089.444702 
	C674.370056,1089.420288 674.698853,1089.395996 675.052490,1089.191650 
	C675.077271,1089.011597 675.048035,1089.011475 675.040161,1089.009399 
z"/>
<path fill="#BDBDBD" opacity="1.000000" stroke="none" 
	d="
M626.176758,1045.614868 
	C626.179138,1045.518799 626.083252,1045.435181 625.973755,1045.409546 
	C625.910461,1045.394775 625.825317,1045.472900 625.750000,1045.509155 
	C625.857605,1045.556641 625.965149,1045.604126 626.176758,1045.614868 
z"/>
<path fill="#BDBDBD" opacity="1.000000" stroke="none" 
	d="
M1094.611206,1078.813965 
	C1094.500488,1078.813721 1094.436890,1078.920532 1094.373291,1079.027466 
	C1094.468262,1078.991943 1094.563232,1078.956421 1094.611206,1078.813965 
z"/>
<path fill="#BDBDBD" opacity="1.000000" stroke="none" 
	d="
M663.364258,1096.989380 
	C663.442200,1097.135620 663.519897,1097.159180 663.597595,1097.182739 
	C663.519775,1097.077393 663.441895,1096.972046 663.364258,1096.989380 
z"/>
<path fill="#BDBDBD" opacity="1.000000" stroke="none" 
	d="
M1100.612427,1074.814209 
	C1100.503662,1074.814941 1100.441162,1074.921997 1100.378662,1075.029053 
	C1100.471924,1074.992920 1100.565308,1074.956787 1100.612427,1074.814209 
z"/>
<path fill="#BDBDBD" opacity="1.000000" stroke="none" 
	d="
M1097.388794,1077.186035 
	C1097.499390,1077.186279 1097.563110,1077.079346 1097.626709,1076.972534 
	C1097.531738,1077.008057 1097.436768,1077.043579 1097.388794,1077.186035 
z"/>
<path fill="#BDBDBD" opacity="1.000000" stroke="none" 
	d="
M1474.376221,1313.992188 
	C1474.449829,1314.135986 1474.523682,1314.159180 1474.597412,1314.182251 
	C1474.598267,1314.057983 1474.599121,1313.933716 1474.599854,1313.809448 
	C1474.525391,1313.830200 1474.450806,1313.850830 1474.376221,1313.992188 
z"/>
<path fill="#BDBDBD" opacity="1.000000" stroke="none" 
	d="
M702.227478,1002.454346 
	C702.008728,1002.389160 701.879700,1002.406494 701.750732,1002.423828 
	C701.939575,1002.461487 702.128418,1002.499146 702.227478,1002.454346 
z"/>
<path fill="#BDBDBD" opacity="1.000000" stroke="none" 
	d="
M1072.611206,1310.813965 
	C1072.500610,1310.813843 1072.437012,1310.920654 1072.373291,1311.027466 
	C1072.468262,1310.991943 1072.563232,1310.956421 1072.611206,1310.813965 
z"/>
<path fill="#BDBDBD" opacity="1.000000" stroke="none" 
	d="
M1481.365234,1308.989502 
	C1481.442383,1309.135376 1481.519653,1309.158936 1481.596802,1309.182495 
	C1481.519653,1309.077393 1481.442505,1308.972290 1481.365234,1308.989502 
z"/>
<path fill="#7F7F7F" opacity="1.000000" stroke="none" 
	d="
M1162.970581,616.972595 
	C1162.786865,617.265442 1162.603149,617.558289 1162.419434,617.851135 
	C1162.422485,617.597778 1162.425659,617.344482 1162.713135,617.044556 
	C1162.997437,616.997986 1162.970581,616.972595 1162.970581,616.972595 
z"/>
<path fill="#7F7F7F" opacity="1.000000" stroke="none" 
	d="
M1163.974487,615.974792 
	C1163.833252,616.303162 1163.691895,616.631531 1163.260498,616.966248 
	C1162.970581,616.972595 1162.997437,616.997986 1163.010010,617.011963 
	C1163.172363,616.711731 1163.322021,616.397522 1163.734863,616.040710 
	C1163.997925,615.998108 1163.974487,615.974792 1163.974487,615.974792 
z"/>
<path fill="#7F7F7F" opacity="1.000000" stroke="none" 
	d="
M1164.987549,614.987793 
	C1164.848389,615.320862 1164.719849,615.664062 1164.282959,615.991089 
	C1163.974487,615.974792 1163.997925,615.998108 1164.009521,616.010376 
	C1164.161133,615.694031 1164.301147,615.365540 1164.729492,615.026855 
	C1165.017822,615.016724 1164.998047,614.998047 1164.987549,614.987793 
z"/>
<path fill="#BDBDBD" opacity="1.000000" stroke="none" 
	d="
M621.506653,1265.506836 
	C621.487305,1265.507080 621.526001,1265.506714 621.506653,1265.506836 
z"/>
<path fill="#7F7F7F" opacity="1.000000" stroke="none" 
	d="
M468.549561,614.452271 
	C468.625092,614.425903 468.474060,614.478699 468.549561,614.452271 
z"/>
<path fill="#BDBDBD" opacity="1.000000" stroke="none" 
	d="
M667.240112,1094.291260 
	C667.488831,1094.295166 667.548401,1094.466064 667.607971,1094.637085 
	C667.422302,1094.577515 667.236633,1094.517944 667.240112,1094.291260 
z"/>
<path fill="#BDBDBD" opacity="1.000000" stroke="none" 
	d="
M699.506592,1003.507019 
	C699.487244,1003.507141 699.526001,1003.506897 699.506592,1003.507019 
z"/>
<path fill="#7F7F7F" opacity="1.000000" stroke="none" 
	d="
M683.344238,612.616089 
	C683.313660,612.400330 683.424194,612.258423 683.522217,612.266663 
	C683.619568,612.274841 683.704285,612.433960 683.794556,612.526855 
	C683.689636,612.603149 683.584778,612.679443 683.344238,612.616089 
z"/>
<path fill="#7F7F7F" opacity="1.000000" stroke="none" 
	d="
M1240.388916,611.483032 
	C1240.423340,611.480469 1240.354370,611.485535 1240.388916,611.483032 
z"/>
</svg>