<svg fill="#FFFFFF" xmlns="http://www.w3.org/2000/svg"  viewBox="0 0 32 32" width="512px" height="512px"><path d="M16 15a7.0081 7.0081 0 00-7 7 1 1 0 001 1H22a1 1 0 001-1A7.0081 7.0081 0 0016 15zM16 13a1 1 0 001-1V10a1 1 0 00-2 0v2A1 1 0 0016 13zM9.6357 14.2217l-1.414-1.4141a1 1 0 10-1.4141 1.4141l1.4141 1.414a1 1 0 001.414-1.414zM6 21H4a1 1 0 000 2H6a1 1 0 000-2zM28 21H26a1 1 0 000 2h2a1 1 0 000-2zM25.1924 12.8076a1 1 0 00-1.4141 0l-1.414 1.4141a1 1 0 001.414 1.414l1.4141-1.414A1 1 0 0025.1924 12.8076z"/></svg>