<svg fill="#FFFFFF" xmlns="http://www.w3.org/2000/svg"  viewBox="0 0 30 30" width="30px" height="30px"><path d="M 14.984375 2.9863281 A 1.0001 1.0001 0 0 0 14 4 L 14 8.5859375 L 12.707031 7.2929688 A 1.0001 1.0001 0 0 0 11.990234 6.9902344 A 1.0001 1.0001 0 0 0 11.292969 8.7070312 L 14.292969 11.707031 A 1.0001 1.0001 0 0 0 15.707031 11.707031 L 18.707031 8.7070312 A 1.0001 1.0001 0 1 0 17.292969 7.2929688 L 16 8.5859375 L 16 4 A 1.0001 1.0001 0 0 0 14.984375 2.9863281 z M 14.984375 14.986328 A 1.0001 1.0001 0 0 0 14 16 L 14 17.185547 C 13.277235 17.279877 12.56711 17.389209 11.917969 17.664062 L 11.365234 16.707031 A 1.0001 1.0001 0 1 0 9.6347656 17.705078 L 10.207031 18.697266 C 9.6358297 19.133316 9.1722219 19.65882 8.7363281 20.230469 L 7.7070312 19.634766 A 1.0001 1.0001 0 1 0 6.7050781 21.365234 L 7.7265625 21.955078 C 7.584774 22.292756 7.4718669 22.640732 7.3769531 23 L 3 23 A 1.0001 1.0001 0 1 0 3 25 L 7.9179688 25 A 1.0001 1.0001 0 0 0 8.25 25 L 21.759766 25 A 1.0001 1.0001 0 0 0 22.087891 25 L 27 25 A 1.0001 1.0001 0 1 0 27 23 L 22.623047 23 C 22.528137 22.640732 22.415226 22.292756 22.273438 21.955078 L 23.294922 21.365234 A 1.0001 1.0001 0 1 0 22.292969 19.634766 L 21.263672 20.230469 C 20.827778 19.65882 20.364171 19.133316 19.792969 18.697266 L 20.365234 17.705078 A 1.0001 1.0001 0 1 0 18.634766 16.707031 L 18.082031 17.664062 C 17.43289 17.389209 16.722765 17.27988 16 17.185547 L 16 16 A 1.0001 1.0001 0 0 0 14.984375 14.986328 z M 14.941406 19.011719 A 1.0001 1.0001 0 0 0 15.060547 19.011719 C 17.638568 19.038554 19.72431 20.709578 20.548828 23 L 9.4511719 23 C 10.275903 20.708986 12.36251 19.037726 14.941406 19.011719 z"/></svg>